<svg width="159" height="40" viewBox="0 0 159 40" fill="none" xmlns="http://www.w3.org/2000/svg">
<g clip-path="url(#clip0_101_3319)">
<path d="M15.7731 0.126344L0.033875 27.4473C-0.0629033 27.6157 0.059343 27.8301 0.2529 27.8301H31.7313C31.93 27.8301 32.0522 27.6157 31.9503 27.4473L16.2111 0.126344C16.1144 -0.0421146 15.8699 -0.0421146 15.768 0.126344H15.7731Z" fill="#ED6203" style="fill:#ED6203;fill:color(display-p3 0.9294 0.3843 0.0118);fill-opacity:1;"/>
<path d="M4.95459 18.6007L11.5253 26.4468L23.3679 12.2401L11.5253 21.9137L4.95459 18.6007Z" fill="white" style="fill:white;fill-opacity:1;"/>
<path d="M46.0038 27.6719V26.0333H45.9631C45.6728 26.5846 45.194 27.0083 44.5216 27.2942C43.946 27.5443 43.3093 27.6668 42.6166 27.6668C40.8899 27.6668 39.4891 27.0696 38.4144 25.8801C37.3804 24.7213 36.8608 23.2716 36.8608 21.5257C36.8608 19.7799 37.3906 18.3659 38.4449 17.202C39.5401 15.9972 40.9306 15.3949 42.6166 15.3949C43.3042 15.3949 43.9358 15.5225 44.5114 15.7777C45.1583 16.0585 45.6422 16.472 45.9631 17.008H46.0038V15.3898H49.4318V27.6617H46.0038V27.6719ZM45.1889 19.443C44.6439 18.8917 43.9562 18.616 43.1209 18.616C42.2855 18.616 41.6132 18.907 41.0732 19.4838C40.5486 20.0453 40.2888 20.7396 40.2888 21.5768C40.2888 22.414 40.5588 23.0572 41.1038 23.6187C41.659 24.1853 42.3415 24.4661 43.1412 24.4661C43.9409 24.4661 44.654 24.1853 45.1991 23.6289C45.7339 23.0725 46.0038 22.3731 46.0038 21.536C46.0038 20.6988 45.7339 19.9994 45.1889 19.443Z" fill="white" style="fill:white;fill-opacity:1;"/>
<path d="M58.0246 19.249C57.1434 19.2745 56.5067 19.4123 56.1094 19.6523C55.5847 19.9739 55.325 20.5456 55.325 21.3573V27.6719H51.897V15.4H55.111V17.4113H55.162C55.707 16.3341 56.6595 15.4 58.0246 15.4V19.249Z" fill="white" style="fill:white;fill-opacity:1;"/>
<path d="M69.5567 26.0486C68.3495 27.238 66.8469 27.8302 65.0387 27.8302C63.2304 27.8302 61.7329 27.238 60.5308 26.0486C59.3185 24.8592 58.7124 23.3686 58.7124 21.5717C58.7124 19.7748 59.3185 18.274 60.5308 17.0846C61.7278 15.8951 63.2304 15.303 65.0387 15.303C66.8469 15.303 68.3495 15.8951 69.5567 17.0846C70.7689 18.274 71.3751 19.7697 71.3751 21.5717C71.3751 23.3737 70.7689 24.8592 69.5567 26.0486ZM67.0659 19.4889C66.5209 18.8968 65.8485 18.5956 65.0387 18.5956C64.2288 18.5956 63.5666 18.8917 63.0216 19.4889C62.4919 20.0607 62.227 20.7549 62.227 21.5717C62.227 22.3884 62.4919 23.0725 63.0216 23.6544C63.5666 24.2415 64.239 24.5325 65.0387 24.5325C65.8383 24.5325 66.5209 24.2364 67.0659 23.6544C67.5956 23.0725 67.8605 22.3782 67.8605 21.5717C67.8605 20.7651 67.5956 20.0607 67.0659 19.4889Z" fill="white" style="fill:white;fill-opacity:1;"/>
<path d="M83.9767 25.8648C82.9019 27.0695 81.491 27.6719 79.7439 27.6719C79.0919 27.6719 78.4756 27.5443 77.8898 27.2891C77.2175 26.993 76.7437 26.5846 76.4687 26.0588H76.4279V27.677H73.1426V11.9695H76.5706V16.7068C77.3855 15.839 78.4909 15.4051 79.8967 15.4051C80.6964 15.4051 81.5012 15.594 82.306 15.9717C83.3807 16.472 84.1957 17.2173 84.7458 18.2127C85.2704 19.1469 85.5302 20.2342 85.5302 21.4747C85.5302 23.2461 85.0107 24.7111 83.9767 25.8699V25.8648ZM81.2974 19.4838C80.7524 18.907 80.0851 18.616 79.2905 18.616C78.4959 18.616 77.8032 18.8968 77.2531 19.4532C76.7132 20.0096 76.4483 20.6988 76.4483 21.5155C76.4483 22.3323 76.703 23.0419 77.2124 23.6085C77.737 24.1802 78.4094 24.4661 79.2294 24.4661C80.0495 24.4661 80.732 24.1853 81.2872 23.6187C81.8322 23.0521 82.1022 22.3578 82.1022 21.5359C82.1022 20.7141 81.8322 20.0504 81.2974 19.4838Z" fill="white" style="fill:white;fill-opacity:1;"/>
<path d="M102.008 27.672V26.0538H101.967C101.631 26.6255 101.137 27.0492 100.485 27.3147C99.9347 27.5495 99.2879 27.6669 98.5391 27.6669C96.8277 27.6669 95.432 27.0697 94.3573 25.87C93.3233 24.7112 92.8037 23.2666 92.8037 21.5258C92.8037 19.7851 93.3182 18.3813 94.3471 17.2225C95.4218 16.0178 96.7971 15.4154 98.478 15.4154C99.8329 15.4154 100.959 15.8748 101.845 16.7886V11.9799H105.273V27.6669H102.008V27.672ZM101.208 19.4533C100.658 18.9071 99.9704 18.6365 99.1401 18.6365C98.3099 18.6365 97.6172 18.9071 97.062 19.4431C96.5017 19.9893 96.2266 20.6785 96.2266 21.5156C96.2266 22.3528 96.4915 23.0624 97.0212 23.6188C97.5611 24.1854 98.2488 24.4662 99.0994 24.4662C99.95 24.4662 100.653 24.1854 101.208 23.629C101.753 23.0675 102.023 22.3681 102.023 21.5156C102.023 20.6631 101.753 19.9995 101.208 19.4533Z" fill="white" style="fill:white;fill-opacity:1;"/>
<path d="M107.972 27.6719V24.1547H111.538V27.6719H107.972Z" fill="white" style="fill:white;fill-opacity:1;"/>
<path d="M125.8 22.9346C125.469 24.3334 124.751 25.4768 123.635 26.36C122.525 27.2329 121.246 27.6719 119.795 27.6719C118.083 27.6719 116.631 27.0746 115.45 25.8852C114.263 24.7009 113.667 23.2511 113.667 21.5308C113.667 19.8105 114.248 18.3863 115.409 17.2071C116.581 16.0176 118.012 15.4204 119.713 15.4204C121.195 15.4204 122.499 15.8594 123.625 16.7425C124.766 17.6308 125.484 18.7998 125.78 20.2495H122.311C121.812 19.1724 120.961 18.6313 119.749 18.6313C118.949 18.6313 118.302 18.9223 117.813 19.5093C117.345 20.0606 117.11 20.7396 117.11 21.5512C117.11 22.3629 117.355 23.0674 117.844 23.6136C118.353 24.1802 119.015 24.461 119.83 24.461C120.951 24.461 121.781 23.9505 122.311 22.9346H125.8Z" fill="white" style="fill:white;fill-opacity:1;"/>
<path d="M137.826 26.0486C136.619 27.238 135.116 27.8302 133.308 27.8302C131.499 27.8302 130.002 27.238 128.8 26.0486C127.588 24.8592 126.981 23.3686 126.981 21.5717C126.981 19.7748 127.588 18.274 128.8 17.0846C129.997 15.8951 131.499 15.303 133.308 15.303C135.116 15.303 136.619 15.8951 137.826 17.0846C139.038 18.274 139.644 19.7697 139.644 21.5717C139.644 23.3737 139.038 24.8592 137.826 26.0486ZM135.335 19.4889C134.79 18.8968 134.118 18.5956 133.308 18.5956C132.498 18.5956 131.836 18.8917 131.291 19.4889C130.761 20.0607 130.496 20.7549 130.496 21.5717C130.496 22.3884 130.761 23.0725 131.291 23.6544C131.836 24.2415 132.508 24.5325 133.308 24.5325C134.107 24.5325 134.79 24.2364 135.335 23.6544C135.865 23.0725 136.13 22.3782 136.13 21.5717C136.13 20.7651 135.865 20.0607 135.335 19.4889Z" fill="white" style="fill:white;fill-opacity:1;"/>
<path d="M155.567 27.6719V21.5717C155.567 20.7855 155.475 20.2036 155.287 19.8258C155.017 19.2949 154.528 19.0295 153.815 19.0295C153.102 19.0295 152.602 19.2643 152.292 19.7288C152.037 20.1117 151.91 20.6732 151.91 21.4032V27.677H148.482V21.4338C148.482 20.7192 148.38 20.173 148.171 19.785C147.896 19.2796 147.427 19.0295 146.77 19.0295C146.047 19.0295 145.522 19.2847 145.207 19.7952C144.957 20.1985 144.835 20.7906 144.835 21.5717V27.6719H141.407V15.4H144.6V17.4113H144.651C144.677 17.4113 144.814 17.1305 144.835 17.0999C144.911 16.9722 144.998 16.8497 145.084 16.7272C145.227 16.5281 145.375 16.329 145.558 16.1555C146.134 15.6093 146.872 15.4 147.646 15.4C149.113 15.4 150.377 16.4771 151.115 17.8452C151.976 16.472 153.214 15.3591 154.92 15.4051C156.005 15.4357 157.044 15.9615 157.798 16.7323C158.374 17.3245 158.705 18.2331 158.868 19.0142C158.929 19.3358 158.969 19.7186 158.99 20.1576C158.995 20.3261 159 20.5303 159 20.7651V27.6719H155.572H155.567Z" fill="white" style="fill:white;fill-opacity:1;"/>
<path d="M87.4399 14.7568V11.9695H90.8679V14.7568H87.4399ZM87.4399 27.6719V16.1759H90.873V27.6719H87.4399Z" fill="white" style="fill:white;fill-opacity:1;"/>
<path d="M64.1827 36.4062H60.7242L60.0416 38.0091H58.7173L61.8295 31.0717H63.0927L66.2151 38.0091H64.8703L64.1776 36.4062H64.1827ZM63.7599 35.3955L62.456 32.3632L61.1622 35.3955H63.7599Z" fill="white" style="fill:white;fill-opacity:1;"/>
<path d="M74.3597 38.0142L72.9437 35.9825C72.8571 35.9927 72.7655 35.9927 72.6789 35.9927H71.1151V38.0142H69.8315V31.0768H72.6789C74.4973 31.0768 75.623 32.0059 75.623 33.5424C75.623 34.594 75.0881 35.3648 74.1509 35.7324L75.7401 38.0091H74.3547L74.3597 38.0142ZM72.6177 32.1641H71.1151V34.9309H72.6177C73.7434 34.9309 74.3292 34.4154 74.3292 33.5424C74.3292 32.6695 73.7485 32.1641 72.6177 32.1641Z" fill="white" style="fill:white;fill-opacity:1;"/>
<path d="M76.5039 35.3648C76.5039 33.7773 77.6907 32.6593 79.3105 32.6593C80.9302 32.6593 82.1272 33.7773 82.1272 35.3648C82.1272 36.9524 80.9506 38.0806 79.3105 38.0806C77.6703 38.0806 76.5039 36.9524 76.5039 35.3648ZM80.8844 35.3648C80.8844 34.3541 80.212 33.7109 79.3105 33.7109C78.4089 33.7109 77.7467 34.3541 77.7467 35.3648C77.7467 36.3756 78.4191 37.0188 79.3105 37.0188C80.2019 37.0188 80.8844 36.3756 80.8844 35.3648Z" fill="white" style="fill:white;fill-opacity:1;"/>
<path d="M87.669 34.9105V38.0142H86.5026V37.371C86.2072 37.8254 85.6316 38.0857 84.8421 38.0857C83.6349 38.0857 82.876 37.4221 82.876 36.4981C82.876 35.5741 83.4719 34.9207 85.0713 34.9207H86.4364V34.8391C86.4364 34.1142 86.0034 33.6905 85.1222 33.6905C84.5314 33.6905 83.9151 33.8896 83.5229 34.2163L83.039 33.3127C83.6044 32.8788 84.4244 32.6593 85.2751 32.6593C86.798 32.6593 87.6792 33.3842 87.6792 34.9105H87.669ZM86.4313 36.3552V35.7426H85.1579C84.3175 35.7426 84.0882 36.0591 84.0882 36.4471C84.0882 36.8912 84.4652 37.1822 85.0968 37.1822C85.7284 37.1822 86.2225 36.9065 86.4313 36.3603V36.3552Z" fill="white" style="fill:white;fill-opacity:1;"/>
<path d="M94.4692 30.6582V38.0091H93.2824V37.3251C92.8698 37.8305 92.2535 38.0806 91.5353 38.0806C90.0021 38.0806 88.8662 37.0086 88.8662 35.3649C88.8662 33.7211 90.0021 32.6593 91.5353 32.6593C92.2178 32.6593 92.8188 32.889 93.2365 33.374V30.6582H94.4743H94.4692ZM93.2569 35.3649C93.2569 34.3541 92.5743 33.7109 91.683 33.7109C90.7916 33.7109 90.109 34.3541 90.109 35.3649C90.109 36.3756 90.7916 37.0188 91.683 37.0188C92.5743 37.0188 93.2569 36.3756 93.2569 35.3649Z" fill="white" style="fill:white;fill-opacity:1;"/>
<path d="M101.998 37.7233C101.702 37.9632 101.254 38.0806 100.811 38.0806C99.6548 38.0806 98.9926 37.468 98.9926 36.299V33.7517H98.1216V32.7614H98.9926V31.5516H100.23V32.7614H101.646V33.7517H100.23V36.2684C100.23 36.784 100.485 37.0597 100.964 37.0597C101.218 37.0597 101.468 36.9882 101.657 36.8401L102.003 37.7233H101.998Z" fill="white" style="fill:white;fill-opacity:1;"/>
<path d="M102.405 35.3648C102.405 33.7773 103.592 32.6593 105.212 32.6593C106.832 32.6593 108.029 33.7773 108.029 35.3648C108.029 36.9524 106.852 38.0806 105.212 38.0806C103.572 38.0806 102.405 36.9524 102.405 35.3648ZM106.786 35.3648C106.786 34.3541 106.113 33.7109 105.212 33.7109C104.31 33.7109 103.648 34.3541 103.648 35.3648C103.648 36.3756 104.32 37.0188 105.212 37.0188C106.103 37.0188 106.786 36.3756 106.786 35.3648Z" fill="white" style="fill:white;fill-opacity:1;"/>
<path d="M118.215 36.1306C118.215 37.32 117.283 38.0142 115.506 38.0142H112.067V31.0768H115.312C116.973 31.0768 117.864 31.7813 117.864 32.8788C117.864 33.5935 117.507 34.1193 116.973 34.4051C117.716 34.6451 118.22 35.227 118.22 36.1306H118.215ZM113.351 32.0876V34.0019H115.169C116.061 34.0019 116.565 33.6854 116.565 33.0524C116.565 32.4194 116.061 32.0927 115.169 32.0927H113.351V32.0876ZM116.916 36.0029C116.916 35.3087 116.392 35.0024 115.424 35.0024H113.346V37.0035H115.424C116.392 37.0035 116.916 36.6972 116.916 36.0029Z" fill="white" style="fill:white;fill-opacity:1;"/>
<path d="M119.3 31.1075C119.3 30.694 119.636 30.3622 120.09 30.3622C120.543 30.3622 120.879 30.6684 120.879 31.0768C120.879 31.5107 120.553 31.8476 120.09 31.8476C119.626 31.8476 119.3 31.5209 119.3 31.1023V31.1075ZM119.468 32.7206H120.706V38.0091H119.468V32.7206Z" fill="white" style="fill:white;fill-opacity:1;"/>
<path d="M127.567 32.7206V37.2077C127.567 39.1322 126.569 40 124.72 40C123.732 40 122.754 39.7448 122.148 39.2445L122.703 38.3154C123.166 38.7034 123.92 38.9484 124.649 38.9484C125.815 38.9484 126.33 38.4124 126.33 37.3455V37.0699C125.897 37.5446 125.27 37.7743 124.562 37.7743C123.049 37.7743 121.893 36.7431 121.893 35.2066C121.893 33.6701 123.049 32.6593 124.562 32.6593C125.306 32.6593 125.958 32.8992 126.391 33.4199V32.7155H127.567V32.7206ZM126.35 35.2066C126.35 34.3133 125.678 33.7109 124.751 33.7109C123.824 33.7109 123.141 34.3133 123.141 35.2066C123.141 36.0999 123.813 36.7227 124.751 36.7227C125.688 36.7227 126.35 36.1101 126.35 35.2066Z" fill="white" style="fill:white;fill-opacity:1;"/>
<path d="M132.04 31.0768H135.065C137.311 31.0768 138.839 32.4653 138.839 34.543C138.839 36.6206 137.306 38.0091 135.065 38.0091H132.04V31.0717V31.0768ZM135.004 36.9218C136.547 36.9218 137.546 35.9825 137.546 34.543C137.546 33.1034 136.547 32.1641 135.004 32.1641H133.323V36.9218H135.004Z" fill="white" style="fill:white;fill-opacity:1;"/>
<path d="M145.033 35.763H140.892C141.04 36.5339 141.682 37.029 142.603 37.029C143.194 37.029 143.663 36.8401 144.035 36.4522L144.697 37.2128C144.223 37.7794 143.48 38.0755 142.573 38.0755C140.805 38.0755 139.654 36.9371 139.654 35.3597C139.654 33.7824 140.811 32.6542 142.384 32.6542C143.958 32.6542 145.054 33.7364 145.054 35.3904C145.054 35.4874 145.043 35.6405 145.033 35.7579V35.763ZM140.877 34.9412H143.872C143.775 34.1805 143.189 33.6547 142.379 33.6547C141.569 33.6547 140.994 34.1703 140.877 34.9412Z" fill="white" style="fill:white;fill-opacity:1;"/>
<path d="M150.509 34.9105V38.0142H149.342V37.371C149.047 37.8254 148.471 38.0857 147.682 38.0857C146.475 38.0857 145.716 37.4221 145.716 36.4981C145.716 35.5741 146.307 34.9207 147.911 34.9207H149.276V34.8391C149.276 34.1142 148.843 33.6905 147.962 33.6905C147.371 33.6905 146.755 33.8896 146.363 34.2163L145.879 33.3127C146.444 32.8788 147.264 32.6593 148.115 32.6593C149.638 32.6593 150.519 33.3842 150.519 34.9105H150.509ZM149.271 36.3552V35.7426H147.998C147.157 35.7426 146.928 36.0591 146.928 36.4471C146.928 36.8912 147.305 37.1822 147.937 37.1822C148.568 37.1822 149.062 36.9065 149.271 36.3603V36.3552Z" fill="white" style="fill:white;fill-opacity:1;"/>
<path d="M152.093 30.6582H153.331V38.0091H152.093V30.6582Z" fill="white" style="fill:white;fill-opacity:1;"/>
<path d="M154.349 37.4885L154.823 36.5492C155.287 36.8555 156 37.075 156.662 37.075C157.441 37.075 157.767 36.8555 157.767 36.4879C157.767 35.4772 154.502 36.4267 154.502 34.3184C154.502 33.3178 155.404 32.6644 156.825 32.6644C157.528 32.6644 158.327 32.8329 158.801 33.1188L158.327 34.058C157.823 33.762 157.319 33.6599 156.815 33.6599C156.066 33.6599 155.709 33.91 155.709 34.252C155.709 35.324 158.974 34.3694 158.974 36.442C158.974 37.4323 158.063 38.0755 156.58 38.0755C155.699 38.0755 154.818 37.8203 154.344 37.4834L154.349 37.4885Z" fill="white" style="fill:white;fill-opacity:1;"/>
</g>
<defs>
<clipPath id="clip0_101_3319">
<rect width="159" height="40" fill="white" style="fill:white;fill-opacity:1;"/>
</clipPath>
</defs>
</svg>
