<svg width="12" height="12" viewBox="0 0 12 12" fill="none" xmlns="http://www.w3.org/2000/svg">
<path d="M4.30128 1C4.03696 1 3.80122 1.16627 3.71252 1.41526L2.05196 6.07658C1.84947 6.64497 2.26949 7.2429 2.87287 7.24521L3.65709 7.24821L3.02248 10.0822C2.85702 10.8211 3.76613 11.3118 4.293 10.768L6.27235 8.72509C6.2532 8.71719 6.23375 8.70993 6.21404 8.70332L5.52123 8.47833L5.51536 8.47626C5.36475 8.42317 5.23427 8.32468 5.14194 8.1943C5.04961 8.06392 5 7.90809 5 7.74828C5 7.58847 5.04961 7.43264 5.14194 7.30226C5.23427 7.17188 5.36475 7.07339 5.51536 7.0203L5.52123 7.01823L6.21124 6.79415C6.34376 6.74777 6.46387 6.67169 6.56236 6.57174C6.65875 6.47393 6.73189 6.35584 6.77651 6.22621L6.78094 6.21299L7.00605 5.52087L7.00813 5.51499C7.06133 5.36432 7.15996 5.23391 7.29037 5.1417C7.42078 5.04949 7.57655 5 7.73622 5C7.89589 5 8.05167 5.04949 8.18207 5.1417C8.31248 5.23391 8.41112 5.36432 8.46432 5.51499L8.46639 5.52087L8.69164 6.21342L8.69535 6.22427L9.82348 5.0599C10.2076 4.66341 9.92668 4 9.37461 4H7.39523L8.12102 1.82264C8.25592 1.41793 7.95469 1 7.52809 1H4.30128ZM6.92693 8.57284C6.96886 8.6149 7.00799 8.65943 7.04414 8.70614C7.14257 8.83332 7.21891 8.97665 7.26949 9.13018L7.49339 9.81855C7.51212 9.87161 7.54686 9.91755 7.59282 9.95005C7.63878 9.98255 7.6937 10 7.75 10C7.8063 10 7.86122 9.98255 7.90718 9.95005C7.94818 9.92106 7.98026 9.88136 8 9.83546C8.00239 9.82992 8.00459 9.82428 8.00661 9.81855L8.23051 9.13018C8.30013 8.9209 8.41764 8.73074 8.5737 8.57479C8.72977 8.41885 8.92008 8.30143 9.12952 8.23186L9.81841 8.00814C9.87151 7.98942 9.91749 7.95471 9.95001 7.90878C9.98253 7.86286 10 7.80798 10 7.75172C10 7.69546 9.98253 7.64058 9.95001 7.59466C9.91749 7.54873 9.87151 7.51402 9.81841 7.4953L9.80464 7.49186L9.11574 7.26814C8.9063 7.19857 8.71599 7.08115 8.55992 6.92521C8.40386 6.76926 8.28635 6.5791 8.21673 6.36982L7.99284 5.68145C7.9741 5.62839 7.93936 5.58245 7.8934 5.54995C7.84744 5.51745 7.79253 5.5 7.73622 5.5C7.67992 5.5 7.625 5.51745 7.57904 5.54995C7.53308 5.58245 7.49834 5.62839 7.47961 5.68145L7.25572 6.36982L7.25 6.38686C7.18113 6.58797 7.06786 6.77112 6.9185 6.92269C6.76493 7.07853 6.57737 7.19676 6.37048 7.26814L5.68159 7.49186C5.62849 7.51058 5.58251 7.54529 5.54999 7.59122C5.51747 7.63714 5.5 7.69202 5.5 7.74828C5.5 7.80454 5.51747 7.85942 5.54999 7.90534C5.58251 7.95127 5.62849 7.98598 5.68159 8.0047L6.37048 8.22842C6.58029 8.29833 6.77084 8.41628 6.92693 8.57284ZM10.8915 10.6066L10.5087 10.4823C10.3924 10.4437 10.2867 10.3784 10.2 10.2918C10.1133 10.2051 10.048 10.0995 10.0093 9.98323L9.88491 9.6008C9.8745 9.57133 9.8552 9.5458 9.82967 9.52775C9.80413 9.5097 9.77363 9.5 9.74235 9.5C9.71107 9.5 9.68056 9.5097 9.65502 9.52775C9.62949 9.5458 9.61019 9.57133 9.59978 9.6008L9.4754 9.98323C9.43749 10.0987 9.37337 10.2038 9.28806 10.2904C9.20274 10.377 9.09854 10.4426 8.9836 10.4823L8.60088 10.6066C8.57138 10.617 8.54584 10.6363 8.52777 10.6618C8.5097 10.6873 8.5 10.7178 8.5 10.749C8.5 10.7803 8.5097 10.8108 8.52777 10.8363C8.54584 10.8618 8.57138 10.8811 8.60088 10.8915L8.9836 11.0158C9.10016 11.0546 9.20602 11.1202 9.29274 11.2071C9.37946 11.2941 9.44463 11.4001 9.48305 11.5168L9.60744 11.8992C9.61784 11.9287 9.63714 11.9542 9.66268 11.9722C9.68821 11.9903 9.71872 12 9.75 12C9.78128 12 9.81179 11.9903 9.83732 11.9722C9.86286 11.9542 9.88216 11.9287 9.89256 11.8992L10.0169 11.5168C10.0556 11.4005 10.1209 11.2949 10.2076 11.2082C10.2943 11.1216 10.4 11.0563 10.5164 11.0177L10.8991 10.8934C10.9286 10.883 10.9542 10.8637 10.9722 10.8382C10.9903 10.8127 11 10.7822 11 10.751C11 10.7197 10.9903 10.6892 10.9722 10.6637C10.9542 10.6382 10.9286 10.6189 10.8991 10.6085L10.8915 10.6066Z" fill="#4C4D45" style="fill:#4C4D45;fill:color(display-p3 0.2980 0.3020 0.2706);fill-opacity:1;"/>
<path d="M4.30128 1C4.03696 1 3.80122 1.16627 3.71252 1.41526L2.05196 6.07658C1.84947 6.64497 2.26949 7.2429 2.87287 7.24521L3.65709 7.24821L3.02248 10.0822C2.85702 10.8211 3.76613 11.3118 4.293 10.768L6.27235 8.72509C6.2532 8.71719 6.23375 8.70993 6.21404 8.70332L5.52123 8.47833L5.51536 8.47626C5.36475 8.42317 5.23427 8.32468 5.14194 8.1943C5.04961 8.06392 5 7.90809 5 7.74828C5 7.58847 5.04961 7.43264 5.14194 7.30226C5.23427 7.17188 5.36475 7.07339 5.51536 7.0203L5.52123 7.01823L6.21124 6.79415C6.34376 6.74777 6.46387 6.67169 6.56236 6.57174C6.65875 6.47393 6.73189 6.35584 6.77651 6.22621L6.78094 6.21299L7.00605 5.52087L7.00813 5.51499C7.06133 5.36432 7.15996 5.23391 7.29037 5.1417C7.42078 5.04949 7.57655 5 7.73622 5C7.89589 5 8.05167 5.04949 8.18207 5.1417C8.31248 5.23391 8.41112 5.36432 8.46432 5.51499L8.46639 5.52087L8.69164 6.21342L8.69535 6.22427L9.82348 5.0599C10.2076 4.66341 9.92668 4 9.37461 4H7.39523L8.12102 1.82264C8.25592 1.41793 7.95469 1 7.52809 1H4.30128ZM6.92693 8.57284C6.96886 8.6149 7.00799 8.65943 7.04414 8.70614C7.14257 8.83332 7.21891 8.97665 7.26949 9.13018L7.49339 9.81855C7.51212 9.87161 7.54686 9.91755 7.59282 9.95005C7.63878 9.98255 7.6937 10 7.75 10C7.8063 10 7.86122 9.98255 7.90718 9.95005C7.94818 9.92106 7.98026 9.88136 8 9.83546C8.00239 9.82992 8.00459 9.82428 8.00661 9.81855L8.23051 9.13018C8.30013 8.9209 8.41764 8.73074 8.5737 8.57479C8.72977 8.41885 8.92008 8.30143 9.12952 8.23186L9.81841 8.00814C9.87151 7.98942 9.91749 7.95471 9.95001 7.90878C9.98253 7.86286 10 7.80798 10 7.75172C10 7.69546 9.98253 7.64058 9.95001 7.59466C9.91749 7.54873 9.87151 7.51402 9.81841 7.4953L9.80464 7.49186L9.11574 7.26814C8.9063 7.19857 8.71599 7.08115 8.55992 6.92521C8.40386 6.76926 8.28635 6.5791 8.21673 6.36982L7.99284 5.68145C7.9741 5.62839 7.93936 5.58245 7.8934 5.54995C7.84744 5.51745 7.79253 5.5 7.73622 5.5C7.67992 5.5 7.625 5.51745 7.57904 5.54995C7.53308 5.58245 7.49834 5.62839 7.47961 5.68145L7.25572 6.36982L7.25 6.38686C7.18113 6.58797 7.06786 6.77112 6.9185 6.92269C6.76493 7.07853 6.57737 7.19676 6.37048 7.26814L5.68159 7.49186C5.62849 7.51058 5.58251 7.54529 5.54999 7.59122C5.51747 7.63714 5.5 7.69202 5.5 7.74828C5.5 7.80454 5.51747 7.85942 5.54999 7.90534C5.58251 7.95127 5.62849 7.98598 5.68159 8.0047L6.37048 8.22842C6.58029 8.29833 6.77084 8.41628 6.92693 8.57284ZM10.8915 10.6066L10.5087 10.4823C10.3924 10.4437 10.2867 10.3784 10.2 10.2918C10.1133 10.2051 10.048 10.0995 10.0093 9.98323L9.88491 9.6008C9.8745 9.57133 9.8552 9.5458 9.82967 9.52775C9.80413 9.5097 9.77363 9.5 9.74235 9.5C9.71107 9.5 9.68056 9.5097 9.65502 9.52775C9.62949 9.5458 9.61019 9.57133 9.59978 9.6008L9.4754 9.98323C9.43749 10.0987 9.37337 10.2038 9.28806 10.2904C9.20274 10.377 9.09854 10.4426 8.9836 10.4823L8.60088 10.6066C8.57138 10.617 8.54584 10.6363 8.52777 10.6618C8.5097 10.6873 8.5 10.7178 8.5 10.749C8.5 10.7803 8.5097 10.8108 8.52777 10.8363C8.54584 10.8618 8.57138 10.8811 8.60088 10.8915L8.9836 11.0158C9.10016 11.0546 9.20602 11.1202 9.29274 11.2071C9.37946 11.2941 9.44463 11.4001 9.48305 11.5168L9.60744 11.8992C9.61784 11.9287 9.63714 11.9542 9.66268 11.9722C9.68821 11.9903 9.71872 12 9.75 12C9.78128 12 9.81179 11.9903 9.83732 11.9722C9.86286 11.9542 9.88216 11.9287 9.89256 11.8992L10.0169 11.5168C10.0556 11.4005 10.1209 11.2949 10.2076 11.2082C10.2943 11.1216 10.4 11.0563 10.5164 11.0177L10.8991 10.8934C10.9286 10.883 10.9542 10.8637 10.9722 10.8382C10.9903 10.8127 11 10.7822 11 10.751C11 10.7197 10.9903 10.6892 10.9722 10.6637C10.9542 10.6382 10.9286 10.6189 10.8991 10.6085L10.8915 10.6066Z" fill="url(#paint0_linear_0_89)"/>
<path d="M4.30128 1C4.03696 1 3.80122 1.16627 3.71252 1.41526L2.05196 6.07658C1.84947 6.64497 2.26949 7.2429 2.87287 7.24521L3.65709 7.24821L3.02248 10.0822C2.85702 10.8211 3.76613 11.3118 4.293 10.768L6.27235 8.72509C6.2532 8.71719 6.23375 8.70993 6.21404 8.70332L5.52123 8.47833L5.51536 8.47626C5.36475 8.42317 5.23427 8.32468 5.14194 8.1943C5.04961 8.06392 5 7.90809 5 7.74828C5 7.58847 5.04961 7.43264 5.14194 7.30226C5.23427 7.17188 5.36475 7.07339 5.51536 7.0203L5.52123 7.01823L6.21124 6.79415C6.34376 6.74777 6.46387 6.67169 6.56236 6.57174C6.65875 6.47393 6.73189 6.35584 6.77651 6.22621L6.78094 6.21299L7.00605 5.52087L7.00813 5.51499C7.06133 5.36432 7.15996 5.23391 7.29037 5.1417C7.42078 5.04949 7.57655 5 7.73622 5C7.89589 5 8.05167 5.04949 8.18207 5.1417C8.31248 5.23391 8.41112 5.36432 8.46432 5.51499L8.46639 5.52087L8.69164 6.21342L8.69535 6.22427L9.82348 5.0599C10.2076 4.66341 9.92668 4 9.37461 4H7.39523L8.12102 1.82264C8.25592 1.41793 7.95469 1 7.52809 1H4.30128ZM6.92693 8.57284C6.96886 8.6149 7.00799 8.65943 7.04414 8.70614C7.14257 8.83332 7.21891 8.97665 7.26949 9.13018L7.49339 9.81855C7.51212 9.87161 7.54686 9.91755 7.59282 9.95005C7.63878 9.98255 7.6937 10 7.75 10C7.8063 10 7.86122 9.98255 7.90718 9.95005C7.94818 9.92106 7.98026 9.88136 8 9.83546C8.00239 9.82992 8.00459 9.82428 8.00661 9.81855L8.23051 9.13018C8.30013 8.9209 8.41764 8.73074 8.5737 8.57479C8.72977 8.41885 8.92008 8.30143 9.12952 8.23186L9.81841 8.00814C9.87151 7.98942 9.91749 7.95471 9.95001 7.90878C9.98253 7.86286 10 7.80798 10 7.75172C10 7.69546 9.98253 7.64058 9.95001 7.59466C9.91749 7.54873 9.87151 7.51402 9.81841 7.4953L9.80464 7.49186L9.11574 7.26814C8.9063 7.19857 8.71599 7.08115 8.55992 6.92521C8.40386 6.76926 8.28635 6.5791 8.21673 6.36982L7.99284 5.68145C7.9741 5.62839 7.93936 5.58245 7.8934 5.54995C7.84744 5.51745 7.79253 5.5 7.73622 5.5C7.67992 5.5 7.625 5.51745 7.57904 5.54995C7.53308 5.58245 7.49834 5.62839 7.47961 5.68145L7.25572 6.36982L7.25 6.38686C7.18113 6.58797 7.06786 6.77112 6.9185 6.92269C6.76493 7.07853 6.57737 7.19676 6.37048 7.26814L5.68159 7.49186C5.62849 7.51058 5.58251 7.54529 5.54999 7.59122C5.51747 7.63714 5.5 7.69202 5.5 7.74828C5.5 7.80454 5.51747 7.85942 5.54999 7.90534C5.58251 7.95127 5.62849 7.98598 5.68159 8.0047L6.37048 8.22842C6.58029 8.29833 6.77084 8.41628 6.92693 8.57284ZM10.8915 10.6066L10.5087 10.4823C10.3924 10.4437 10.2867 10.3784 10.2 10.2918C10.1133 10.2051 10.048 10.0995 10.0093 9.98323L9.88491 9.6008C9.8745 9.57133 9.8552 9.5458 9.82967 9.52775C9.80413 9.5097 9.77363 9.5 9.74235 9.5C9.71107 9.5 9.68056 9.5097 9.65502 9.52775C9.62949 9.5458 9.61019 9.57133 9.59978 9.6008L9.4754 9.98323C9.43749 10.0987 9.37337 10.2038 9.28806 10.2904C9.20274 10.377 9.09854 10.4426 8.9836 10.4823L8.60088 10.6066C8.57138 10.617 8.54584 10.6363 8.52777 10.6618C8.5097 10.6873 8.5 10.7178 8.5 10.749C8.5 10.7803 8.5097 10.8108 8.52777 10.8363C8.54584 10.8618 8.57138 10.8811 8.60088 10.8915L8.9836 11.0158C9.10016 11.0546 9.20602 11.1202 9.29274 11.2071C9.37946 11.2941 9.44463 11.4001 9.48305 11.5168L9.60744 11.8992C9.61784 11.9287 9.63714 11.9542 9.66268 11.9722C9.68821 11.9903 9.71872 12 9.75 12C9.78128 12 9.81179 11.9903 9.83732 11.9722C9.86286 11.9542 9.88216 11.9287 9.89256 11.8992L10.0169 11.5168C10.0556 11.4005 10.1209 11.2949 10.2076 11.2082C10.2943 11.1216 10.4 11.0563 10.5164 11.0177L10.8991 10.8934C10.9286 10.883 10.9542 10.8637 10.9722 10.8382C10.9903 10.8127 11 10.7822 11 10.751C11 10.7197 10.9903 10.6892 10.9722 10.6637C10.9542 10.6382 10.9286 10.6189 10.8991 10.6085L10.8915 10.6066Z" fill="url(#paint1_linear_0_89)"/>
<defs>
<linearGradient id="paint0_linear_0_89" x1="15.4998" y1="6.5" x2="4.71769" y2="-2.32121" gradientUnits="userSpaceOnUse">
<stop stop-color="#FF7733" style="stop-color:#FF7733;stop-color:color(display-p3 1.0000 0.4667 0.2000);stop-opacity:1;"/>
<stop offset="1" stop-color="#FFB685" style="stop-color:#FFB685;stop-color:color(display-p3 1.0000 0.7137 0.5216);stop-opacity:1;"/>
</linearGradient>
<linearGradient id="paint1_linear_0_89" x1="2.1385" y1="1" x2="12.6547" y2="9.87595" gradientUnits="userSpaceOnUse">
<stop stop-color="#FF8E55" stop-opacity="0.4" style="stop-color:#FF8E55;stop-color:color(display-p3 1.0000 0.5567 0.3350);stop-opacity:0.4;"/>
<stop offset="1" stop-color="#E16324" style="stop-color:#E16324;stop-color:color(display-p3 0.8809 0.3876 0.1409);stop-opacity:1;"/>
</linearGradient>
</defs>
</svg>
