<svg width="24" height="24" viewBox="0 0 24 24" fill="none" xmlns="http://www.w3.org/2000/svg">
<circle cx="12" cy="12" r="10" fill="url(#paint0_linear_0_191)"/>
<circle cx="12" cy="12" r="8" fill="url(#paint1_linear_0_191)"/>
<g filter="url(#filter0_d_0_191)">
<path d="M15.5 8C16.3284 8 17 8.67157 17 9.5C17 10.3284 16.3284 11 15.5 11H13.5V15.5C13.5 16.3284 12.8284 17 12 17C11.1716 17 10.5 16.3284 10.5 15.5V11H8.5C7.67157 11 7 10.3284 7 9.5C7 8.67157 7.67157 8 8.5 8H15.5Z" fill="white" style="fill:white;fill-opacity:1;"/>
</g>
<defs>
<filter id="filter0_d_0_191" x="5" y="7" width="14" height="13" filterUnits="userSpaceOnUse" color-interpolation-filters="sRGB">
<feFlood flood-opacity="0" result="BackgroundImageFix"/>
<feColorMatrix in="SourceAlpha" type="matrix" values="0 0 0 0 0 0 0 0 0 0 0 0 0 0 0 0 0 0 127 0" result="hardAlpha"/>
<feOffset dy="1"/>
<feGaussianBlur stdDeviation="1"/>
<feComposite in2="hardAlpha" operator="out"/>
<feColorMatrix type="matrix" values="0 0 0 0 1 0 0 0 0 0.433333 0 0 0 0 0 0 0 0 0.25 0"/>
<feBlend mode="normal" in2="BackgroundImageFix" result="effect1_dropShadow_0_191"/>
<feBlend mode="normal" in="SourceGraphic" in2="effect1_dropShadow_0_191" result="shape"/>
</filter>
<linearGradient id="paint0_linear_0_191" x1="2" y1="5.06639e-08" x2="26" y2="28" gradientUnits="userSpaceOnUse">
<stop offset="0.15" stop-color="#FFD97A" style="stop-color:#FFD97A;stop-color:color(display-p3 1.0000 0.8510 0.4784);stop-opacity:1;"/>
<stop offset="0.910256" stop-color="#FFC03A" style="stop-color:#FFC03A;stop-color:color(display-p3 1.0000 0.7529 0.2275);stop-opacity:1;"/>
</linearGradient>
<linearGradient id="paint1_linear_0_191" x1="7" y1="5.5" x2="17.5" y2="17.5" gradientUnits="userSpaceOnUse">
<stop stop-color="#FFC52F" style="stop-color:#FFC52F;stop-color:color(display-p3 1.0000 0.7725 0.1843);stop-opacity:1;"/>
<stop offset="1" stop-color="#FFA601" style="stop-color:#FFA601;stop-color:color(display-p3 1.0000 0.6510 0.0039);stop-opacity:1;"/>
</linearGradient>
</defs>
</svg>
